<svg id="Layer_1" data-name="Layer 1" xmlns="http://www.w3.org/2000/svg" viewBox="0 0 1388.71 392.78"><defs><style>.cls-1,.cls-2{fill:#212121;}.cls-2{font-size:91px;font-family:Cocogoose;}.cls-3{letter-spacing:-0.02em;}.cls-4{letter-spacing:-0.04em;}.cls-5{letter-spacing:-0.03em;}</style></defs><polygon class="cls-1" points="173.09 210.41 173.27 210.31 172.91 210.31 173.09 210.41"/><text class="cls-2" transform="translate(374.51 178.28)">Arthur Pier<tspan class="cls-3" x="577.93" y="0">r</tspan><tspan class="cls-4" x="628.93" y="0">o</tspan><tspan x="692.41" y="0">t</tspan><tspan x="0" y="109.2">Game D</tspan><tspan class="cls-5" x="399.03" y="109.2">e</tspan><tspan x="460.73" y="109.2">v</tspan></text><polygon class="cls-1" points="51.96 224.32 51.96 224.37 52.01 224.29 51.96 224.32"/><path class="cls-1" d="M27.87,113.16l38.3,22.27a2.33,2.33,0,0,0,2.34,0L188.33,66.25a2.33,2.33,0,0,0,1.17-2V17.94a1.23,1.23,0,0,0-1.85-1.06L27.88,109.12A2.33,2.33,0,0,0,27.87,113.16Z" transform="translate(-20.29 -16.71)"/><path class="cls-1" d="M63.19,282.71V144.29a2.34,2.34,0,0,0-1.16-2L23.8,120a2.34,2.34,0,0,0-3.51,2V304.94a2.33,2.33,0,0,0,3.51,2L62,284.73A2.34,2.34,0,0,0,63.19,282.71Z" transform="translate(-20.29 -16.71)"/><path class="cls-1" d="M198.67,66.72l119.42,68.94a2.33,2.33,0,0,0,2.34,0l38.7-22.5a2.34,2.34,0,0,0,0-4L199.35,16.88a1.23,1.23,0,0,0-1.85,1.06V64.7A2.33,2.33,0,0,0,198.67,66.72Z" transform="translate(-20.29 -16.71)"/><path class="cls-1" d="M359.13,313.84l-38.7-22.5a2.33,2.33,0,0,0-2.34,0L198.67,360.28a2.33,2.33,0,0,0-1.17,2v44.85a2.33,2.33,0,0,0,3.5,2l158.12-91.29A2.34,2.34,0,0,0,359.13,313.84Z" transform="translate(-20.29 -16.71)"/><path class="cls-1" d="M363.2,120l-39,22.7a2.34,2.34,0,0,0-1.16,2V282.24a2.34,2.34,0,0,0,1.16,2l39,22.69a2.32,2.32,0,0,0,3.5-2V122.06A2.33,2.33,0,0,0,363.2,120Z" transform="translate(-20.29 -16.71)"/><path class="cls-1" d="M188.33,360.75,68.51,291.57a2.33,2.33,0,0,0-2.34,0l-38.3,22.27a2.34,2.34,0,0,0,0,4L186,409.17a2.33,2.33,0,0,0,3.5-2V362.77A2.33,2.33,0,0,0,188.33,360.75Z" transform="translate(-20.29 -16.71)"/><path class="cls-1" d="M187.79,214.17,78.88,151.43a4.42,4.42,0,0,0-6.62,3.83V281a4.42,4.42,0,0,0,2.21,3.83l58.41,33.72,50.49,29.15a4.42,4.42,0,0,0,6.63-3.83V218A4.42,4.42,0,0,0,187.79,214.17Z" transform="translate(-20.29 -16.71)"/><path class="cls-1" d="M203.8,348.08l50.49-29.15L312.7,285.2a4.4,4.4,0,0,0,2.21-3.82V155.69a4.41,4.41,0,0,0-6.62-3.83L199.38,214.6a4.42,4.42,0,0,0-2.21,3.83V344.25A4.42,4.42,0,0,0,203.8,348.08Z" transform="translate(-20.29 -16.71)"/><path class="cls-1" d="M304.84,136.74l-50.35-29.28-58.3-33.9a4.42,4.42,0,0,0-4.42,0l-58.52,33.55-50.58,29a4.43,4.43,0,0,0,0,7.66L191.42,207a4.44,4.44,0,0,0,4.42,0l109-62.61A4.42,4.42,0,0,0,304.84,136.74Z" transform="translate(-20.29 -16.71)"/></svg>