<svg id="Layer_1" data-name="Layer 1" xmlns="http://www.w3.org/2000/svg" viewBox="0 0 757.67 553.61"><defs><style>.cls-1,.cls-3,.cls-4,.cls-5{stroke:#000;}.cls-1,.cls-3,.cls-5{stroke-linecap:round;}.cls-1,.cls-3{stroke-linejoin:round;}.cls-1,.cls-3,.cls-4{stroke-width:2px;}.cls-2,.cls-3,.cls-4,.cls-5{fill:none;}.cls-4,.cls-5{stroke-miterlimit:10;}.cls-5{stroke-width:3px;}.cls-6{font-size:108px;font-family:Lato-Bold, Lato;font-weight:700;}.cls-7{letter-spacing:-0.02em;}.cls-8{letter-spacing:-0.01em;}.cls-9{letter-spacing:-0.02em;}</style></defs><path class="cls-1" d="M500,481V681l35.5-19.87V582.27L672.71,503,672,383Zm139.5,1.15-104,60.12v-40l104-60.12Z" transform="translate(-133.69 -272)"/><polygon class="cls-2" points="480.33 78.36 423.55 45.57 422.07 44.72 366.81 76.78 424.93 110.5 480.33 78.36"/><polygon class="cls-2" points="253.28 142.64 310.07 175.43 311.55 176.28 366.81 144.22 308.69 110.5 253.28 142.64"/><polygon class="cls-2" points="311.55 44.72 310.07 45.57 253.28 78.36 308.69 110.5 366.81 76.78 311.55 44.72"/><polygon class="cls-2" points="366.81 144.22 422.07 176.28 423.55 175.43 480.33 142.64 424.93 110.5 366.81 144.22"/><path d="M671.86,381.43,616,349.17l-57.73-33.34L500.5,282.5l-57.74,33.33L385,349.17l-56.52,32.62a.82.82,0,0,0,0,1.42L385,415.83l57.73,33.34L500.5,482.5l57.74-33.33L616,415.83l55.89-32.26A1.24,1.24,0,0,0,671.86,381.43Zm-114.62,66-1.48.85L500.5,416.22l-55.26,32.06-1.48-.85L387,414.64l55.41-32.14L387,350.36l56.79-32.79,1.48-.85,55.26,32.06,55.26-32.06,1.48.85L614,350.36l-55.4,32.14L614,414.64Z" transform="translate(-133.69 -272)"/><polygon points="366.81 76.78 308.69 110.5 366.81 144.22 424.93 110.5 366.81 76.78"/><g id="A"><polygon class="cls-3" points="195.31 111 194.6 309.92 227.31 328.8 227.31 249.29 332.31 309.98 332.31 389.42 366.31 409 366.31 209 195.31 111"/><polygon class="cls-4" points="332.31 271.13 331.31 270.55 228.31 211.02 227.31 210.44 227.31 169.29 228.31 169.87 331.31 229.41 332.31 229.98 332.31 271.13"/></g><path class="cls-5" d="M430,665.24c-145.21,39.7-264.43,31.52-289.92-27.48-18.07-41.84,14.76-100.47,81.18-159a670.59,670.59,0,0,1,77-57.91" transform="translate(-133.69 -272)"/><path class="cls-5" d="M698.06,276.46c82.78-6,143.5,10.64,160.84,50.78,31.69,73.36-93.17,198.4-281.19,284.1" transform="translate(-133.69 -272)"/><circle cx="543.81" cy="7.5" r="7.5"/><text class="cls-6" transform="translate(23.05 522.83)">A</text><text class="cls-6" transform="translate(98.06 522.83) scale(0.7)"><tspan class="cls-7">R</tspan><tspan x="67.39" y="0">THUR</tspan></text><text class="cls-6" transform="translate(353.58 522.83)"><tspan xml:space="preserve"> P</tspan></text><text class="cls-6" transform="translate(446.68 522.83) scale(0.7)">IER<tspan class="cls-8" x="163.56" y="0">R</tspan><tspan class="cls-9" x="231.93" y="0">O</tspan><tspan x="316.55" y="0">T</tspan></text></svg>