<svg id="Layer_1" data-name="Layer 1" xmlns="http://www.w3.org/2000/svg" viewBox="0 0 346.41 392.78"><defs><style>.cls-1{fill:#212121;}</style></defs><polygon class="cls-1" points="173.09 210.41 173.27 210.31 172.91 210.31 173.09 210.41"/><polygon class="cls-1" points="51.96 224.32 51.96 224.37 52.01 224.29 51.96 224.32"/><path class="cls-1" d="M27.87,108.16l38.3,22.27a2.33,2.33,0,0,0,2.34,0L188.33,61.25a2.33,2.33,0,0,0,1.17-2V12.94a1.23,1.23,0,0,0-1.85-1.06L27.88,104.12A2.33,2.33,0,0,0,27.87,108.16Z" transform="translate(-20.29 -11.71)"/><path class="cls-1" d="M63.19,277.71V139.29a2.34,2.34,0,0,0-1.16-2L23.8,115a2.34,2.34,0,0,0-3.51,2V299.94a2.33,2.33,0,0,0,3.51,2L62,279.73A2.34,2.34,0,0,0,63.19,277.71Z" transform="translate(-20.29 -11.71)"/><path class="cls-1" d="M198.67,61.72l119.42,68.94a2.33,2.33,0,0,0,2.34,0l38.7-22.5a2.34,2.34,0,0,0,0-4L199.35,11.88a1.23,1.23,0,0,0-1.85,1.06V59.7A2.33,2.33,0,0,0,198.67,61.72Z" transform="translate(-20.29 -11.71)"/><path class="cls-1" d="M359.13,308.84l-38.7-22.5a2.33,2.33,0,0,0-2.34,0L198.67,355.28a2.33,2.33,0,0,0-1.17,2v44.85a2.33,2.33,0,0,0,3.5,2l158.12-91.29A2.34,2.34,0,0,0,359.13,308.84Z" transform="translate(-20.29 -11.71)"/><path class="cls-1" d="M363.2,115l-39,22.7a2.34,2.34,0,0,0-1.16,2V277.24a2.34,2.34,0,0,0,1.16,2l39,22.69a2.32,2.32,0,0,0,3.5-2V117.06A2.33,2.33,0,0,0,363.2,115Z" transform="translate(-20.29 -11.71)"/><path class="cls-1" d="M188.33,355.75,68.51,286.57a2.33,2.33,0,0,0-2.34,0l-38.3,22.27a2.34,2.34,0,0,0,0,4L186,404.17a2.33,2.33,0,0,0,3.5-2V357.77A2.33,2.33,0,0,0,188.33,355.75Z" transform="translate(-20.29 -11.71)"/><path class="cls-1" d="M187.79,209.17,78.88,146.43a4.42,4.42,0,0,0-6.62,3.83V276a4.42,4.42,0,0,0,2.21,3.83l58.41,33.72,50.49,29.15a4.42,4.42,0,0,0,6.63-3.83V213A4.42,4.42,0,0,0,187.79,209.17Z" transform="translate(-20.29 -11.71)"/><path class="cls-1" d="M203.8,343.08l50.49-29.15L312.7,280.2a4.4,4.4,0,0,0,2.21-3.82V150.69a4.41,4.41,0,0,0-6.62-3.83L199.38,209.6a4.42,4.42,0,0,0-2.21,3.83V339.25A4.42,4.42,0,0,0,203.8,343.08Z" transform="translate(-20.29 -11.71)"/><path class="cls-1" d="M304.84,131.74l-50.35-29.28-58.3-33.9a4.42,4.42,0,0,0-4.42,0l-58.52,33.55-50.58,29a4.43,4.43,0,0,0,0,7.66L191.42,202a4.44,4.44,0,0,0,4.42,0l109-62.61A4.42,4.42,0,0,0,304.84,131.74Z" transform="translate(-20.29 -11.71)"/></svg>